<svg width="21" height="21" viewBox="0 0 21 21" fill="none" xmlns="http://www.w3.org/2000/svg">
<path d="M5.03562 17.7476L3.5 7H17.5L15.9644 17.7476C15.9048 18.1646 15.6967 18.5461 15.3785 18.8221C15.0602 19.0981 14.6531 19.25 14.2319 19.25H6.76812C6.34688 19.25 5.93976 19.0981 5.62151 18.8221C5.30326 18.5461 5.09523 18.1646 5.03562 17.7476ZM18.375 3.5H14V2.625C14 2.39294 13.9078 2.17038 13.7437 2.00628C13.5796 1.84219 13.3571 1.75 13.125 1.75H7.875C7.64293 1.75 7.42038 1.84219 7.25628 2.00628C7.09219 2.17038 7 2.39294 7 2.625V3.5H2.625C2.39294 3.5 2.17038 3.59219 2.00628 3.75628C1.84219 3.92038 1.75 4.14294 1.75 4.375C1.75 4.60706 1.84219 4.82962 2.00628 4.99372C2.17038 5.15781 2.39294 5.25 2.625 5.25H18.375C18.6071 5.25 18.8296 5.15781 18.9937 4.99372C19.1578 4.82962 19.25 4.60706 19.25 4.375C19.25 4.14294 19.1578 3.92038 18.9937 3.75628C18.8296 3.59219 18.6071 3.5 18.375 3.5Z" fill="black"/>
</svg>
