<svg width="32" height="32" viewBox="0 0 32 32" fill="none" xmlns="http://www.w3.org/2000/svg">
<path d="M5.7838 26.0883H8.52684C8.88012 26.0883 9.16684 25.8022 9.16684 25.4483V20.7673C9.16684 20.4134 8.88012 20.1273 8.52684 20.1273H5.7838C5.43052 20.1273 5.1438 20.4134 5.1438 20.7673V25.4483C5.1438 25.8016 5.43052 26.0883 5.7838 26.0883ZM6.4238 21.4067H7.88684V24.8076H6.4238V21.4067Z" fill="#231F20"/>
<path d="M14.0122 26.0884C14.3655 26.0884 14.6522 25.8023 14.6522 25.4484V12.2388C14.6522 11.8848 14.3655 11.5988 14.0122 11.5988H11.2692C10.9159 11.5988 10.6292 11.8848 10.6292 12.2388V25.4484C10.6292 25.8023 10.9159 26.0884 11.2692 26.0884H14.0122ZM11.9092 12.8788H13.3722V24.8084H11.9092V12.8788Z" fill="#231F20"/>
<path d="M19.4976 26.0883C19.8509 26.0883 20.1376 25.8022 20.1376 25.4483V16.6144C20.1376 16.2604 19.8509 15.9744 19.4976 15.9744H16.7552C16.402 15.9744 16.1152 16.2604 16.1152 16.6144V25.4483C16.1152 25.8022 16.402 26.0883 16.7552 26.0883H19.4976ZM17.3952 17.2544H18.8583V24.8083H17.3952V17.2544Z" fill="#231F20"/>
<path d="M21.6006 6.24828V25.4483C21.6006 25.8022 21.8873 26.0883 22.2406 26.0883H24.9836C25.3369 26.0883 25.6236 25.8022 25.6236 25.4483V6.24828C25.6236 5.89436 25.3369 5.60828 24.9836 5.60828H22.2406C21.8873 5.60828 21.6006 5.89436 21.6006 6.24828ZM22.8806 6.88828H24.3436V24.8083H22.8806V6.88828Z" fill="#231F20"/>
</svg>
