<svg width="57" height="30" viewBox="0 0 57 30" fill="none" xmlns="http://www.w3.org/2000/svg">
<path d="M0.139788 30V0.90909H11.2762C13.3784 0.90909 15.1256 1.24053 16.5176 1.90341C17.9191 2.55682 18.9655 3.4517 19.6568 4.58807C20.3576 5.72443 20.708 7.01231 20.708 8.4517C20.708 9.63542 20.4807 10.6487 20.0262 11.4915C19.5716 12.3248 18.9608 13.0019 18.1938 13.5227C17.4267 14.0436 16.5697 14.4176 15.6227 14.6449V14.929C16.6549 14.9858 17.6445 15.303 18.5915 15.8807C19.5479 16.4489 20.3292 17.2538 20.9352 18.2955C21.5413 19.3371 21.8443 20.5966 21.8443 22.0739C21.8443 23.5795 21.4798 24.9337 20.7506 26.1364C20.0214 27.3295 18.9229 28.2718 17.4551 28.9631C15.9873 29.6544 14.1407 30 11.9154 30H0.139788ZM5.40967 25.5966H11.0773C12.9902 25.5966 14.368 25.232 15.2108 24.5028C16.0631 23.7642 16.4892 22.8172 16.4892 21.6619C16.4892 20.8002 16.2762 20.0237 15.85 19.3324C15.4239 18.6316 14.8178 18.0824 14.0318 17.6847C13.2458 17.2775 12.3083 17.0739 11.2193 17.0739H5.40967V25.5966ZM5.40967 13.2812H10.6227C11.5318 13.2812 12.351 13.1155 13.0801 12.7841C13.8093 12.4432 14.3822 11.965 14.7989 11.3494C15.225 10.7244 15.4381 9.9858 15.4381 9.13352C15.4381 8.00663 15.0404 7.0786 14.2449 6.34943C13.4589 5.62026 12.2894 5.25568 10.7364 5.25568H5.40967V13.2812ZM26.3489 0.90909H32.7977L41.4341 21.9886H41.775L50.4114 0.90909H56.8602V30H51.8034V10.0142H51.5335L43.4937 29.9148H39.7153L31.6756 9.97159H31.4057V30H26.3489V0.90909Z" fill="white"/>
</svg>
